<?xml version="1.0" standalone="no"?>
<!DOCTYPE svg PUBLIC "-//W3C//DTD SVG 20010904//EN"
 "http://www.w3.org/TR/2001/REC-SVG-20010904/DTD/svg10.dtd">
<svg version="1.0" xmlns="http://www.w3.org/2000/svg"
 width="128.000000pt" height="128.000000pt" viewBox="0 0 128.000000 128.000000"
 preserveAspectRatio="xMidYMid meet">
<metadata>
Created by potrace 1.11, written by Peter Selinger 2001-2013
</metadata>
<g transform="translate(0.000000,128.000000) scale(0.100000,-0.100000)"
fill="#000000" stroke="none">
<path d="M537 1116 c-87 -31 -201 -130 -297 -258 -71 -94 -102 -171 -102 -255
1 -99 34 -158 166 -288 126 -124 191 -167 287 -191 128 -31 230 14 374 167
138 147 184 235 185 350 0 54 -6 77 -32 129 -35 71 -152 195 -256 273 -103 76
-233 105 -325 73z m257 -170 c72 -35 137 -101 172 -174 25 -49 28 -69 29 -147
0 -77 -4 -98 -27 -148 -31 -67 -107 -144 -166 -171 -23 -11 -44 -17 -46 -15
-2 2 -22 53 -44 113 l-40 109 41 38 c37 36 39 41 34 81 -18 136 -206 126 -207
-11 0 -37 5 -48 36 -77 l37 -33 -38 -103 c-21 -57 -41 -107 -45 -111 -14 -16
-107 41 -153 93 -110 123 -118 314 -18 446 42 57 114 108 180 129 72 23 186
15 255 -19z"/>
</g>
</svg>
